,
.   http://www.scenetime.com/signup.php  ---&gt;  Hottest scene tracker on the net !!!  

    Join Now   http://www.scenetime.com/signup.php

    seed back for speed


 



...................................NFO:.................................................
[pre]
oooooo     oooo  o8o   .oooooo..o ooooo     ooo       .o.       ooooo         o8o   .oooooo..o oooooooooooo
`888.     .8'   `"'  d8P'    `Y8 `888'     `8'      .888.      `888'         `"'  d8P'    `Y8 `888'     `8
 `888.   .8'   oooo  Y88bo.       888       8      .8"888.      888         oooo  Y88bo.       888        
  `888. .8'    `888   `"Y8888o.   888       8     .8' `888.     888         `888   `"Y8888o.   888oooo8    
   `888.8'      888       `"Y88b  888       8    .88ooo8888.    888          888       `"Y88b  888    "    
    `888'       888  oo     .d8P  `88.    .8'   .8'     `888.   888       o  888  oo     .d8P  888       o
     `8'       o888o 8""88888P'     `YbodP'    o88o     o8888o o888ooooood8 o888o 8""88888P'  o888ooooood8




Title: 30 Minutes Or Less 2011 R5LiNE XviD - VISUALiSE
Format: Xvid
Language: English
Subtitles: No
Sample: Yes
Imdb: http://www.imdb.com/title/tt1622547/

Plot:
Two fledgling criminals kidnap a pizza delivery guy, 
strap a bomb to his chest, and inform him that he has 
mere hours to rob a bank or else...

Sources:
Video: Russians - Many Thanks :D
Audio: Guys From TA - Many Thanks :D

Release Notes:
Bringing to the people of p2p... 30 Minutes Or Less 2011 R5LiNE XviD - VISUALiSE
Finally bringing you 30 minutes or less R5 Line and what nice Line audio it is 
as well :P :P
Many thanks to those involved in bringing this release ;) ;) 
check sample and njoy :P :P

Info:

Video
ID                               : 0
Format                           : MPEG-4 Visual
Format profile                   : Advanced Simple@L5
Format settings, BVOP            : 2
Format settings, QPel            : No
Format settings, GMC             : No warppoints
Format settings, Matrix          : Custom
Codec ID                         : XVID
Codec ID/Hint                    : XviD
Duration                         : 1h 19mn
Bit rate                         : 2 000 Kbps
Width                            : 720 pixels
Height                           : 304 pixels
Display aspect ratio             : 2.35:1
Frame rate                       : 25.000 fps
Color space                      : YUV
Chroma subsampling               : 4:2:0
Bit depth                        : 8 bits
Scan type                        : Progressive
Compression mode                 : Lossy
Bits/(Pixel*Frame)               : 0.365
Stream size                      : 1.11 GiB (94%)
Writing library                  : XviD 58

Audio
ID                               : 1
Format                           : MPEG Audio
Format version                   : Version 1
Format profile                   : Layer 3
Mode                             : Joint stereo
Mode extension                   : MS Stereo
Codec ID                         : 55
Codec ID/Hint                    : MP3
Duration                         : 1h 19mn
Bit rate mode                    : Constant
Bit rate                         : 128 Kbps
Channel(s)                       : 2 channels
Sampling rate                    : 44.1 KHz
Compression mode                 : Lossy
Stream size                      : 73.0 MiB (6%)
Alignment                        : Split accross interleaves
Interleave, duration             : 40 ms (1.00 video frame)
Writing library                  : LAME3.98r
Encoding settings                : -m j -V 4 -q 2 -lowpass 17 -b 128

Screens:
[IMG]http://i.imgur.com/uJmRO.png[/IMG]

[IMG]http://i.imgur.com/wSQi1.png[/IMG]

[IMG]http://i.imgur.com/k6IIE.png[/IMG]

[IMG]http://i.imgur.com/8kSBv.png[/IMG]

[IMG]http://i.imgur.com/LfAXR.png[/IMG]

Greetz:
Each and Every Scene / P2P Group Past and Present and All Who Have Made It What It Is 2Day  [/pre]